<?xml version="1.0" encoding="utf-8"?>
<!-- Generator: Adobe Illustrator 16.0.4, SVG Export Plug-In . SVG Version: 6.00 Build 0)  -->
<!DOCTYPE svg PUBLIC "-//W3C//DTD SVG 1.1//EN" "http://www.w3.org/Graphics/SVG/1.1/DTD/svg11.dtd">
<svg version="1.1" id="Layer_1" xmlns="http://www.w3.org/2000/svg" xmlns:xlink="http://www.w3.org/1999/xlink" x="0px" y="0px"
	 width="512px" height="512px" viewBox="0 0 512 512" enable-background="new 0 0 512 512" xml:space="preserve">
<g>
	<g>
		<path fill="#FFFFFF" d="M280.102,146.686v-19.163c0.014-0.376,0.055-0.75,0.055-1.13c0-10.754-8.959-19.478-19.396-19.478h-9.877
			c-10.193,0-18.479,7.333-18.859,17.745h-0.015v0.385c0,0.121-0.016,0.232-0.016,0.353c0,0.121,0.017,0.234,0.017,0.354v20.934
			H280.102z"/>
		<path fill="#FFFFFF" d="M391.455,329.824c10.436,0,15.92,1.948,15.92-8.804v-86.85c0-10.753-8.465-16.242-18.9-16.242
			c-0.006,0-0.016,0-0.016,0h-37.146l8.986-15.598H303.33h-97.055h-54.21l16.71,23.3l-64.149,0.399l65.127,72.978l8.098,38.502
			h157.39l11.164-87.584h28.885v71.095C375.289,331.772,381.02,329.824,391.455,329.824z"/>
		<path fill="#FFFFFF" d="M335.584,353.432l-158.018-0.07l-33.894,132.821c33.91,16.583,72.02,25.902,112.311,25.902
			c40.46,0,78.72-9.4,112.736-26.114L335.584,353.432z"/>
		<polygon fill="#FFFFFF" points="303.326,186.231 354.811,186.231 331.053,162.624 327.076,162.624 182.52,162.624 
			178.559,162.624 154.803,186.231 206.279,186.231 		"/>
	</g>
</g>
<path fill="#231F20" d="M256,0C114.615,0,0,114.615,0,256c0,101.096,58.607,188.493,143.693,230.1l33.873-132.738l158.018,0.07
	l33.117,132.472C453.573,444.219,512,356.938,512,256C512,114.615,397.385,0,256,0z M232.009,125.045v-0.385h0.015
	c0.379-10.412,8.666-17.745,18.859-17.745h9.877c10.438,0,19.396,8.724,19.396,19.478c0,0.38-0.041,0.754-0.055,1.13v19.163H232.01
	v-20.934c0-0.12-0.017-0.233-0.017-0.354C231.993,125.277,232.009,125.166,232.009,125.045z M178.559,162.624h3.961h144.557h3.977
	l23.758,23.607h-51.484h-97.047h-51.476L178.559,162.624z M407.375,321.021c0,10.752-5.484,8.804-15.92,8.804
	s-16.166,1.948-16.166-8.804v-71.095h-28.885L335.24,337.51h-157.39l-8.098-38.502l-65.127-72.978l64.149-0.399l-16.71-23.3h54.21
	h97.055h56.969l-8.986,15.598h37.146c0,0,0.01,0,0.016,0c10.436,0,18.9,5.489,18.9,16.242V321.021z"/>
</svg>
